<?xml version="1.0" encoding="UTF-8" standalone="no"?>
<svg width="512" height="128" viewBox="0 0 512 128" fill="none" xmlns="http://www.w3.org/2000/svg">
  <!-- Shield Icon -->
  <g transform="translate(0, 14) scale(0.9)">
    <circle cx="50" cy="50" r="50" fill="black"/>
    <path d="M50 20C35.2 20 23 27.6 23 37.2V71.6C23 76 28.8 80 37.6 82.4L50 90L62.4 82.4C71.2 80 77 76 77 71.6V37.2C77 27.6 64.8 20 50 20Z" fill="white"/>
  </g>
  
  <!-- Text "Authentica" -->
  <g transform="translate(110, 65)">
    <!-- A -->
    <path d="M0 0L12 -45H18L30 0H24L21 -11H9L6 0H0ZM10.5 -16H19.5L15 -34L10.5 -16Z" fill="black"/>
    <!-- u -->
    <path d="M42 0V-33H47V-28C49.3333 -31.6667 52.6667 -34 57 -34C61 -34 64 -32.3333 66 -29C68.6667 -32.3333 71.6667 -34 75 -34C80.3333 -34 83 -31 83 -25V0H78V-23C78 -25.6667 77.6667 -27.5 77 -28.5C76.3333 -29.5 75 -30 73 -30C70.3333 -30 68 -28.3333 66 -25V0H61V-23C61 -25.6667 60.6667 -27.5 60 -28.5C59.3333 -29.5 58 -30 56 -30C53.3333 -30 51 -28.3333 47 -25V0H42Z" fill="black"/>
    <!-- t -->
    <path d="M95 0V-29H88V-33H95V-42H100V-33H107V-29H100V0H95Z" fill="black"/>
    <!-- h -->
    <path d="M116 0V-50H121V-28C123.667 -32 127 -34 131 -34C136.333 -34 139 -31 139 -25V0H134V-23C134 -25.6667 133.667 -27.5 133 -28.5C132.333 -29.5 131 -30 129 -30C125.667 -30 123 -28.3333 121 -25V0H116Z" fill="black"/>
    <!-- e -->
    <path d="M151 1C145.667 1 141.5 -0.666667 138.5 -4C135.5 -7.33333 134 -11.6667 134 -17C134 -22.3333 135.5 -26.6667 138.5 -30C141.5 -33.3333 145.333 -35 150 -35C154.667 -35 158.333 -33.3333 161 -30C163.667 -26.6667 165 -22.3333 165 -17V-15H139C139 -11.6667 140.167 -9 142.5 -7C144.833 -5 147.667 -4 151 -4C153 -4 154.833 -4.33333 156.5 -5C158.167 -5.66667 159.667 -6.66667 161 -8L164 -5C162.333 -3 160.167 -1.5 157.5 -0.5C154.833 0.5 152 1 151 1ZM160 -19C160 -21.6667 159 -24 157 -26C155 -28 152.667 -29 150 -29C147.333 -29 145 -28 143 -26C141 -24 140 -21.6667 140 -19H160Z" fill="black"/>
    <!-- n -->
    <path d="M176 0V-33H181V-28C183.667 -32 187 -34 191 -34C196.333 -34 199 -31 199 -25V0H194V-23C194 -25.6667 193.667 -27.5 193 -28.5C192.333 -29.5 191 -30 189 -30C185.667 -30 183 -28.3333 181 -25V0H176Z" fill="black"/>
    <!-- t -->
    <path d="M211 0V-29H204V-33H211V-42H216V-33H223V-29H216V0H211Z" fill="black"/>
    <!-- i -->
    <path d="M234 0V-33H239V0H234ZM234 -42V-50H239V-42H234Z" fill="black"/>
    <!-- c -->
    <path d="M252 1C247.333 1 243.5 -0.666667 240.5 -4C237.5 -7.33333 236 -11.6667 236 -17C236 -22.3333 237.5 -26.6667 240.5 -30C243.5 -33.3333 247.333 -35 252 -35C254.667 -35 257 -34.5 259 -33.5C261 -32.5 262.667 -31 264 -29L261 -26C258.333 -29.3333 255.333 -31 252 -31C248.667 -31 246 -29.6667 244 -27C242 -24.3333 241 -21 241 -17C241 -13 242 -9.66667 244 -7C246 -4.33333 248.667 -3 252 -3C255.333 -3 258.333 -4.66667 261 -8L264 -5C262.667 -3 261 -1.5 259 -0.5C257 0.5 254.667 1 252 1Z" fill="black"/>
    <!-- a -->
    <path d="M276 1C271.333 1 267.667 -0.666667 265 -4C262.333 -7.33333 261 -11.6667 261 -17C261 -22.3333 262.333 -26.6667 265 -30C267.667 -33.3333 271.333 -35 276 -35C278 -35 280 -34.5 282 -33.5C284 -32.5 285.333 -31.3333 286 -30V-50H291V0H286V-3C285.333 -2 284 -1 282 0C280 0.666667 278 1 276 1ZM277 -3C279.667 -3 282.333 -4 285 -6V-28C282.333 -30 279.667 -31 277 -31C273.667 -31 271 -29.6667 269 -27C267 -24.3333 266 -21 266 -17C266 -13 267 -9.66667 269 -7C271 -4.33333 273.667 -3 277 -3Z" fill="black"/>
  </g>
</svg> 